<svg xmlns="http://www.w3.org/2000/svg" pointer-events="none" class="leaflet-zoom-animated" width="1452" height="830" viewBox="-121 -69 1452 830" style="transform: translate3d(-121px, -69px, 0px) scale(1);"><g><path class="leaflet-interactive" stroke="#201920" stroke-opacity="1" stroke-width="2" stroke-linecap="round" stroke-linejoin="round" fill="none" d="M362 303L362 299L361 300L359 296L363 294L362 291L365 288L366 289L369 286L371 286L371 284L374 285L376 283L377 286L383 286L388 278L393 279L396 276L397 277L397 275L403 273L406 270L413 268L413 261L416 258L415 257L418 256L418 252L415 245L415 239L411 237L411 235L424 231L432 233L433 232L430 229L430 227L436 209L443 212L452 213L456 211L458 209L456 198L460 194L462 195L465 193L467 189L466 188L468 186L474 186L476 193L481 195L483 199L489 199L490 202L493 201L493 203L496 205L498 212L500 212L501 215L501 218L499 220L500 223L498 226L499 233L500 232L503 234L504 233L510 235L520 235L531 243L536 243L535 246L537 246L538 251L544 260L550 259L569 262L585 262L592 267L593 266L598 269L608 270L609 272L613 273L616 270L633 263L643 264L654 261L662 253L666 252L669 249L665 243L666 238L669 234L682 238L686 236L691 230L698 230L704 225L703 224L708 219L712 219L713 216L717 217L719 215L724 214L726 216L733 215L732 210L722 200L717 199L713 203L704 201L701 204L698 201L698 199L700 197L707 177L715 181L722 176L728 174L729 171L727 171L727 169L732 162L734 154L737 151L739 151L740 148L739 143L737 141L734 142L734 140L742 132L743 133L759 129L763 129L767 132L768 131L770 134L773 135L779 135L779 138L781 138L782 142L785 144L784 147L786 148L785 149L788 154L787 155L789 156L789 162L792 165L793 172L795 172L794 177L797 181L804 180L804 182L810 182L810 184L812 184L816 189L820 189L818 192L821 196L819 198L823 204L834 203L839 198L841 199L848 195L855 195L852 196L851 201L853 203L847 209L848 210L845 217L846 220L839 233L836 234L829 231L827 233L828 234L822 236L825 246L825 252L823 258L818 260L819 263L816 260L816 258L813 257L812 262L810 264L809 263L806 268L798 268L801 273L799 275L792 274L790 272L791 271L789 271L790 270L787 271L782 280L775 283L769 288M402 370L399 367L399 365L402 362L404 366L406 364L406 360L401 354L401 350L404 347L398 343L396 335L391 336L384 333L384 331L381 332L379 329L380 326L377 323L375 323L375 321L367 319L369 317L371 318M628 460L626 460L627 457L625 457L627 453L625 451L620 452L616 448L614 448L612 452L607 452L604 455L602 453L600 453L597 456L594 453L592 453L591 456L586 455L586 467L582 466L582 462L574 464L574 462L572 462L571 459L567 459L567 453L569 451L564 449L564 445L562 443L564 441L558 441L554 443L553 442L555 440L553 438L555 434L554 433L562 425L561 424L563 420L563 412L560 409L560 411L558 409L558 405L554 403L554 401L552 403L553 404L551 404L552 407L549 409L542 404L538 404L535 405L535 407L532 409L527 410L521 416L517 417L509 417L509 411L505 411L504 406L499 407L490 404L486 408L484 413L482 411L483 406L481 405L479 407L474 408L470 408L465 405L463 407L461 405L461 407L457 403L454 404L453 400L450 401L445 396L445 394L441 396L436 391L434 391L434 389L433 390L432 388L430 388L429 385L424 384L422 388L408 378L405 379L402 376L402 370M637 464L632 463L628 460M640 593L639 584M648 509L651 513L652 518M656 542L654 550M668 614L676 611M698 583L703 577M722 553L725 544M726 511L726 520M734 486L729 494M749 462L743 470M754 447L756 437"/><path class="leaflet-interactive" stroke="#201920" stroke-opacity="1" stroke-width="2" stroke-linecap="butt" stroke-linejoin="round" stroke-dasharray="4,4" stroke-dashoffset="4" fill="none" d="M371 318L373 316L371 314L371 306L369 304L366 303L364 305L362 303"/><path class="leaflet-interactive" stroke="gray" stroke-opacity="1" stroke-width="1" stroke-linecap="round" stroke-linejoin="round" stroke-dasharray="8,4,4,4" fill="none" d="M682 458L682 458M687 455L685 455L684 458L689 458L689 456L687 455"/><path class="leaflet-interactive" stroke="#4190da" stroke-opacity="1" stroke-width="1" stroke-linecap="round" stroke-linejoin="round" fill="none" d="M686 457L686 455L684 456L683 453L682 458L680 460L679 459L679 461L676 460L674 462L671 461L669 463L659 465L655 468L655 470L658 473L656 475L652 475L650 469L652 465L650 463L648 465L646 465L646 463L637 464M656 467L656 467M656 467L656 469L656 467M682 458L682 458M686 457L686 457M686 457L686 457M686 457L686 457M733 418L730 419L732 419L733 422L730 423L731 426L729 428L733 428L731 430L728 429L728 431L726 431L727 432L726 433L726 431L724 435L723 434L724 435L722 438L719 437L719 439L713 446L709 446L705 452L699 452L697 454L695 452L692 455L690 453L690 455L689 456L689 454L687 456L689 456L686 457M733 418L733 418M748 396L746 400L747 403L744 406L743 405L742 408L741 407L733 420L732 419L734 417L733 418M746 322L744 324L740 324L741 327L740 326L739 329L736 330L736 328L736 330L727 341L737 349L741 359L741 363L746 367L745 368L749 370L749 372L744 370L742 372L744 374M744 374L750 379L749 380L751 382L747 380L742 383L745 384L749 389L751 389L748 391L750 392L749 396M746 322L746 322M746 322L746 322M752 296L749 300L745 302L742 301L747 298L747 296L746 297L743 294L745 294L745 292L752 285L751 282L750 283L748 281L743 280L738 285L738 287L731 290L728 293L728 295L722 299L722 301L719 300L719 298L717 298L715 302L715 306L717 306L717 308L724 309L727 312L728 311L728 313L725 314L725 316L728 319L732 319L732 317L736 314L735 313L739 312L745 314L745 316L751 315L755 317L752 322L746 322M746 322L746 322M748 396L748 396M748 396L748 396M748 396L748 396M749 396L748 396M749 396L749 396M751 388L751 388M751 388L751 388M751 388L751 388M752 388L751 388M751 388L749 386L751 386L752 388M752 388L752 388M752 386L753 385L752 386M752 386L752 386M752 296L752 296M769 288L767 292L761 292L752 296M753 381L753 381M753 381L753 381M755 380L755 380M644 463L644 463M646 468L646 468M649 478L649 478M649 582L650 580L653 581L652 580L649 582M650 493L642 489L642 483L647 478L659 475L662 479L659 482L657 488L651 491L650 493M653 578L654 577L653 578M656 471L656 471M657 467L657 467M657 578L657 578M657 576L658 575L657 576M658 468L658 466L658 468M658 474L658 474M658 576L658 576M658 469L658 469M663 512L663 512M665 502L666 501L665 502M665 572L665 572M665 507L665 507M665 566L665 566M666 580L666 580M666 578L666 578M666 507L666 507M666 506L666 506M666 577L667 578L666 577M666 509L666 509M666 571L667 572L666 571M666 506L666 506M667 579L667 579M667 506L667 506M667 509L668 508L667 509M667 507L668 506L667 507M667 510L667 510M669 576L669 576M669 508L669 508M669 610L669 610M671 570L671 570M671 570L671 570M671 610L671 610M671 504L671 504M671 513L671 513M671 502L672 503L671 502M671 569L672 570L671 569M671 609L671 609M672 569L672 569M672 596L672 596M672 503L672 503M672 504L672 504M673 508L672 509L673 508M673 463L673 463M673 595L673 595M673 511L674 510L673 511M673 507L674 506L673 507M673 564L673 564M673 596L674 595L673 596M673 594L674 595L673 594M674 570L674 570M674 593L674 593M674 600L674 600M674 463L674 463M674 596L674 596M674 598L674 598M674 507L675 508L674 507M674 600L674 600M675 462L674 463L675 462M675 508L675 508M675 505L675 505M676 463L675 462L676 463M676 569L676 569M676 463L676 463M676 504L676 504M676 578L676 578M676 564L676 564M676 564L676 564M677 601L677 601M677 573L677 573M677 481L677 481M677 563L677 563M677 461L677 461M678 460L678 460M678 461L678 461M679 460L679 460M679 590L679 590M679 576L679 576M679 576L680 575L679 576M682 458L682 458M682 558L682 558M682 585L682 585M682 569L683 568L682 569M683 567L683 567M683 460L683 460M683 514L683 514M683 460L683 460M683 460L683 460M683 460L683 460M683 580L684 579L683 580M684 582L684 582M684 456L684 456M684 459L684 459M684 484L684 484M684 458L686 458L684 458M684 560L684 560M684 515L684 515M684 513L685 514L684 513M684 577L685 576L684 577M684 580L689 577L690 578L688 580L684 580M685 569L684 570L685 569M685 512L685 512M685 570L685 570M685 569L686 570L685 569M685 516L685 516M686 560L686 560M686 553L686 553M686 576L686 576M686 511L686 511M686 458L686 458M687 460L687 460M687 565L687 565M687 457L687 457M687 460L687 460M687 570L687 570M687 510L687 510M687 459L687 459M687 515L687 515M687 558L687 558M687 562L687 562M687 458L687 458M687 514L688 515L687 514M688 563L688 563M688 549L688 549M688 455L688 455M688 552L688 552M688 457L688 457M688 559L688 559M688 554L688 554M688 548L688 548M689 510L689 510M689 561L689 561M689 514L689 514M689 562L689 562M689 553L689 553M689 554L689 554M689 561L689 561M689 576L690 575L689 576M690 561L690 561M690 561L690 561M690 549L690 549M690 561L690 561M690 570L691 569L690 570M690 514L690 514M690 561L691 560L690 561M690 549L691 548L690 549M690 456L690 456M691 580L691 580M691 575L691 575M691 557L691 557M691 548L691 548M691 552L692 551L691 552M691 509L691 509M691 562L691 562M692 575L692 575M692 551L692 551M692 512L692 512M692 554L692 554M692 583L692 583M692 577L692 577M693 553L693 553M693 510L693 510M693 581L693 581M693 551L693 551M695 573L696 574L695 573M695 572L696 573L695 572M696 559L696 559M696 528L696 528M697 565L697 565M697 561L697 561M697 573L698 572L697 573M699 556L699 556M699 556L699 556M699 556L699 556M699 557L700 556L699 557M700 556L700 556M700 563L701 562L700 563M700 553L700 553M701 468L701 468M701 467L702 468L701 467M701 566L701 566M702 560L702 560M703 564L703 564M704 569L704 569M705 562L705 562M705 567L705 567M705 562L705 562M705 557L707 557L705 557M706 562L706 562M707 556L707 556M707 508L707 508M707 548L708 549L707 548M707 471L707 471M707 568L707 568M708 470L708 472L708 470M708 556L708 556M711 447L709 447L711 447M711 555L711 555M711 554L711 554M712 558L712 558M712 555L713 554L712 555M712 551L712 551M712 560L712 560M713 552L713 552M715 555L715 555M715 552L715 552M715 518L716 517L715 518M716 554L716 554M718 438L718 438M719 438L718 437L719 438M719 439L720 438L719 439M721 438L720 439L721 438M723 299L723 299M724 298L724 298M724 298L725 299L724 298M729 449L729 449M729 432L730 431L729 432M730 448L730 448M730 445L730 445M730 445L730 445M730 428L730 428M731 423L731 423M731 446L730 447L731 446M731 427L731 427M731 428L731 428M731 419L732 418L731 419M731 430L731 430M731 430L731 430M732 419L732 419M733 428L733 428M733 423L733 423M733 425L733 425M734 447L734 447M734 422L733 423L734 422M734 420L734 420M735 420L735 420M735 419L735 419M735 417L735 417M735 333L735 333M736 416L736 416M736 457L736 457M736 416L736 416M737 313L737 313M738 421L738 421M739 311L738 310L739 311M739 460L735 453L734 446L740 436L745 431L747 431L749 433L749 438L745 450L741 455L741 461L739 460M739 310L739 310M739 311L739 311M740 309L740 309M740 284L740 284M740 307L740 307M741 306L741 306M741 307L741 307M742 326L742 326M742 407L742 407M742 411L742 411M742 407L743 406L742 407M743 407L744 406L743 407M745 371L750 374L749 375L743 371L745 371M745 364L745 364M745 454L745 454M746 459L746 459M747 460L747 460M747 374L747 374M747 396L747 396M748 400L748 400M748 376L746 375L748 376M748 375L750 376L748 375M748 387L748 387M748 399L748 399M748 400L749 399L748 400M749 402L749 402M749 387L748 388L749 387M749 376L749 376M749 402L749 402M749 429L749 429M749 435L749 435M749 387L749 387M749 377L750 376L749 377M749 385L749 385M750 396L750 396M750 390L750 390M750 388L750 388M750 386L750 386M750 382L750 382M750 388L750 388M750 388L750 388M751 388L751 388M751 388L751 388M751 386L751 386M751 385L752 386L751 385M751 386L751 386M751 393L751 393M751 391L750 390L751 391M751 391L751 391M751 388L752 389L751 388M752 389L752 389M752 389L752 389M752 391L751 390L752 391M752 389L753 388L753 390L752 389M753 298L753 298M753 388L753 388M753 384L753 384M754 384L754 384M754 298L754 298M754 297L754 297M754 382L754 382M755 298L756 297L755 298M756 387L756 387M756 300L755 299L756 300M756 381L756 381M756 381L756 381M758 294L757 295L758 294M758 295L758 295M759 300L759 300M760 427L762 427L760 427M762 426L762 426M763 425L764 426L763 425M763 428L763 428M763 427L763 427M763 428L763 428M763 292L763 292M770 425L769 426L770 425"/><path class="leaflet-interactive" stroke="#747569" stroke-opacity="0.6" stroke-width="1" stroke-linecap="round" stroke-linejoin="round" fill="none" d="M490 329L481 326L471 326L463 328L460 333L452 333L445 337L436 336L435 333L431 333L431 335L429 335L427 338L415 336L415 338L413 340L412 339L411 344L409 346L408 345L404 347M554 364L552 364L552 366L549 369L547 369L546 372L543 370L542 373L540 371L537 372L535 370L536 367L535 368L533 366L535 366L533 366L530 363L524 365L519 364L517 362L510 362L505 359L499 359L495 357L489 349L491 349L491 341L489 341L488 338L491 332L487 330L490 329M512 300L505 301L503 303L497 303L496 305L493 306L494 308L496 308L496 313L498 313L503 320L501 320L498 323L498 325L501 326L499 330L493 328L491 330L490 329M587 354L586 355L585 353L583 353L579 349L579 347L580 346L589 349L589 347L591 347L588 344L588 342L592 338L591 337L595 335L594 332L596 332L597 330L595 324L592 321L594 319L588 313L587 314L583 312L574 305L574 307L572 307L564 299L559 300L557 302L552 298L548 298L549 303L546 306L546 308L544 307L542 309L538 306L529 307L527 302L523 303L523 301L518 301L517 298L512 300M544 260L540 263L542 266L540 270L535 272L532 271L524 278L522 282L516 283L514 293L511 297L512 300M607 316L600 312L600 306L604 304L607 299L605 297L606 296L603 295L597 299L593 297L587 299L589 301L587 303L580 300L579 296L569 291L575 283L574 280L566 280L566 282L565 281L562 283L562 281L559 283L559 280L556 278L554 274L555 272L550 259M566 395L564 381L561 376L564 375L560 371L558 365L554 364M587 354L586 359L582 357L583 362L577 364L575 362L574 363L572 359L571 362L564 359L560 349L556 348L554 349L554 351L552 351L552 353L555 356L552 359L553 360L551 360L554 364M558 405L558 403L562 405L562 397L564 399L564 395L566 395M615 409L614 406L610 408L608 406L608 400L604 400L604 403L600 405L601 408L596 413L597 420L594 423L594 421L587 424L587 422L585 422L585 418L579 410L580 409L578 407L576 409L573 406L573 401L570 399L568 401L568 405L566 403L566 395M617 360L616 363L610 363L607 360L608 357L606 353L599 352L596 347L590 351L593 354L588 359L587 354M634 312L631 309L625 307L629 300L627 296L623 297L623 299L622 298L620 302L620 310L618 313L607 316M607 316L609 316L616 323L615 324L617 328L617 333L619 333L619 335L621 335L624 338L624 334L629 331L629 329L625 327L625 321L627 319L631 319M615 409L615 411L611 413L607 413L604 411L602 415L603 420L609 418L610 419L607 428L610 431L612 431L609 436M609 436L609 438L613 438L615 442L620 441L622 443L621 447L620 446L617 449M649 424L648 427L645 426L644 427L646 427L646 429L643 428L642 431L638 429L639 430L635 432L632 431L631 428L621 436L614 433L610 437L609 436M624 402L622 400L618 402L618 404L619 403L623 405L624 407L622 409L615 409M631 319L631 321L638 325L639 324L642 327L642 336L640 338L635 337L635 341L625 339L626 342L624 344L627 347L625 347L626 354L620 354L619 357L621 358L618 361L617 360M641 367L635 367L634 365L632 365L633 364L631 365L629 363L630 362L623 363L621 361L618 362L617 360M647 402L646 405L644 405L640 397L636 397L634 395L632 395L632 399L629 398L627 402L625 402L625 400L624 402M624 402L623 398L619 398L619 396L615 392L619 388L617 386L621 384L623 386L626 385L626 387L629 388L632 385L632 381L637 380L637 376L641 373L639 369L641 367M631 319L631 315L634 312M662 296L662 294L659 297L656 297L654 295L655 296L653 298L652 297L653 298L646 305L646 310L644 310L642 314L634 312M641 367L650 372M650 372L655 377L655 379L649 383L640 383L640 385L642 386L640 390L642 390L645 393L644 394L646 393L647 396M647 396L647 402M685 397L683 397L682 390L678 393L677 390L672 393L668 389L664 389L662 387L658 387L658 391L651 390L651 392L650 391L647 396M649 424L649 422L647 422L649 414L644 415L644 413L646 413L645 412L649 410L647 402M669 436L668 435L665 437L665 433L661 433L665 426L663 426L662 421L658 421L655 425L653 423L651 425L649 424M661 357L659 359L657 357L649 357L651 361L652 360L655 363L651 363L649 365L650 372M651 464L651 465M651 464L655 460L656 461L656 459L659 458L659 456L662 453L664 453L664 447L670 439L669 436M652 476L653 476M654 476L656 475M656 344L655 341L658 334L656 320L660 314L657 311L657 309L660 306L661 301L663 299L662 296M656 344L661 357M656 344L666 342L669 339L670 340L670 338L676 338L682 334L683 327M657 475L658 474M696 375L694 373L691 374L690 371L685 372L683 368L684 367L682 365L680 367L678 365L671 366L667 364L661 357M661 358L661 358M686 282L686 284L676 286L676 288L673 286L668 294L665 293L665 295L662 296M669 436L671 432L675 432L675 434L677 434L678 431L676 431L678 429L682 431L685 429M697 329L694 328L693 330L683 327M683 327L681 323L683 323L683 321L684 322L683 319L686 316L686 312L684 308L682 308L682 304L684 302L683 300L688 299L690 295L689 292L685 290L685 288L686 289L686 287L689 286L686 282M703 390L701 391L697 389L697 391L695 391L692 394L688 394L685 397M685 429L685 425L687 423L685 423L686 420L684 418L684 413L682 411L682 409L687 404L687 400L685 397M685 429L685 431L691 431L691 433L689 433L687 437L689 438L696 435L700 437L699 436L701 434M727 276L720 275L720 267L719 268L717 266L718 265L716 261L710 263L706 269L705 268L702 271L700 269L696 271L696 273L692 273L693 269L689 267L687 273L684 274L686 282M703 344L703 346L706 347L707 350L704 353L700 349L698 351L699 354L697 354L696 357L692 359L695 362L695 364L701 364L701 370L698 371L696 375M703 390L700 384L700 380L702 378L696 375M717 307L712 312L708 312L705 315L704 314L703 317L701 317L701 319L696 324L697 329M703 344L697 344L697 342L695 342L695 340L694 341L692 339L700 331L702 331L702 329L696 333L697 329M701 434L700 431L707 420L706 417L710 415L711 412L709 410L712 409L712 407L715 408L721 404M711 446L708 437L706 437L704 435L705 434L701 434M719 394L719 392L715 392L712 389L710 389L711 390L708 392L707 391L709 389L707 387L703 390M704 344L703 344M728 340L724 340L724 342L721 343L720 346L717 343L715 345L712 344L712 346L708 340L705 341L704 344M731 377L730 378L728 376L724 376L723 375L725 373L723 373L723 371L722 372L720 370L722 368L721 367L723 367L722 364L726 364L727 361L724 360L724 362L720 362L720 360L717 357L719 353L715 353L716 352L713 349L704 344M713 287L711 285L714 282L710 282L706 278L704 280L705 281L699 284L701 286L697 290L697 292L700 295L704 295L706 293L708 294M715 304L712 305L707 302L709 298L708 294M709 293L708 294M709 293L711 293L711 289M711 289L708 290L709 293M711 446L712 447M713 287L711 289M712 448L713 448M713 287L716 290L714 290L714 292L718 298M719 394L725 388L724 387L729 384L727 382L730 381L731 377M719 394L718 397L721 400L721 404M737 414L736 411L732 413L730 409L727 412L724 411L724 404L721 404M727 276L729 274L729 264L734 269L734 271L740 265L741 266L744 263L748 263L750 260L758 260L761 257L763 257L763 253M732 290L732 287L729 284L727 284L727 282L724 281L727 276M741 378L738 381L731 377M739 415L740 415M740 306L742 306M749 373L744 370L743 376L741 378M744 382L741 378M745 382L746 382M761 212L761 214L760 213L758 215L753 208L754 205L768 193L770 199L772 187L776 185L775 177L782 162L776 154L773 156L773 158L758 159L755 150L756 147L752 143L749 146L747 146L747 144L744 142L748 136L746 132M746 382L747 381M748 381L749 381M750 380L751 380M753 380L754 380M755 379L756 379M825 252L820 252L816 246L814 248L814 246L811 248L810 247L808 251L806 251L802 245L801 240L798 243L799 244L796 245L793 239L790 240L791 235L789 233L781 233L779 229L770 230L766 226L766 220L759 221M759 221L758 217L763 215L763 213L762 214L761 212M759 221L756 223L756 227L753 224L750 225L748 223L747 226L750 228L752 232L750 235L752 243L757 242L759 240L762 249L762 251L760 251L763 253M761 212L761 212M761 212L761 212M761 212L761 212M763 253L764 252L769 257L769 259L772 256L773 257L775 265L777 267L778 266L776 268L776 272L778 272L777 273L780 276L778 280L780 280M620 336L621 335L620 336M649 418L650 417L649 418M677 390L677 390"/><path class="leaflet-interactive" stroke="#3388ff" stroke-opacity="0" stroke-width="3" stroke-linecap="round" stroke-linejoin="round" fill="#3388ff" fill-opacity="0" fill-rule="evenodd" d="M712 283L714 283L709 282L707 278L702 283L699 284L701 286L700 288L697 289L697 292L700 295L704 295L706 293L707 294L709 292L708 289L713 288L711 286L712 283z"/><path class="leaflet-interactive" stroke="#3388ff" stroke-opacity="0" stroke-width="3" stroke-linecap="round" stroke-linejoin="round" fill="#3388ff" fill-opacity="0" fill-rule="evenodd" d="M716 296L717 295L714 292L714 290L716 290L713 287L711 289L711 293L708 294L709 298L707 302L715 304L717 300L716 299L718 297L715 296zM716 296L716 296z"/><path class="leaflet-interactive" stroke="#3388ff" stroke-opacity="0" stroke-width="3" stroke-linecap="round" stroke-linejoin="round" fill="#3388ff" fill-opacity="0" fill-rule="evenodd" d="M713 283L711 285L716 290L714 290L714 292L721 301L728 295L728 292L732 290L730 284L728 284L725 281L725 279L728 276L720 275L720 267L719 268L717 266L718 265L716 261L710 263L707 269L701 269L696 271L696 273L693 272L693 269L691 267L689 267L687 273L684 274L684 278L688 286L690 286L685 289L689 291L689 297L685 299L682 304L682 308L685 310L686 313L683 319L684 320L681 324L684 327L693 330L695 328L696 329L696 325L700 321L701 317L704 315L705 316L708 312L712 312L717 307L714 304L710 304L707 302L709 298L707 293L705 295L699 295L697 293L697 290L701 286L699 284L702 283L707 278L709 282L713 283zM711 289L708 290L709 293L711 293L711 289zM716 296L715 296zM724 298L724 299z"/><path class="leaflet-interactive" stroke="#3388ff" stroke-opacity="0" stroke-width="3" stroke-linecap="round" stroke-linejoin="round" fill="#3388ff" fill-opacity="0" fill-rule="evenodd" d="M656 344L666 342L669 339L670 340L670 338L676 338L682 334L683 327L681 323L684 321L683 320L686 315L685 310L682 307L684 303L683 300L688 299L690 295L689 292L685 289L690 286L688 286L687 282L682 286L679 285L676 286L675 288L673 286L668 294L666 293L663 296L660 306L657 309L657 311L660 314L656 320L658 332L655 341L656 344z"/><path class="leaflet-interactive" stroke="#3388ff" stroke-opacity="0" stroke-width="3" stroke-linecap="round" stroke-linejoin="round" fill="#3388ff" fill-opacity="0" fill-rule="evenodd" d="M550 259L555 272L553 274L559 280L559 283L563 283L565 281L566 282L566 280L573 280L575 283L574 287L569 291L579 296L579 300L582 300L585 303L587 303L589 301L587 299L592 297L596 299L600 296L605 295L607 299L604 304L600 306L600 312L608 316L617 313L620 310L620 302L622 298L623 299L623 297L626 296L629 299L629 301L625 307L628 309L632 309L632 311L637 312L637 314L642 314L643 311L646 310L645 307L653 298L652 297L653 298L655 296L654 295L656 297L658 297L661 294L663 296L666 293L667 294L673 286L675 288L679 285L682 286L686 284L684 274L687 273L689 267L691 267L693 269L692 272L695 273L700 269L702 271L705 268L706 269L709 267L709 263L713 263L716 261L718 265L717 266L719 268L720 267L720 275L727 276L729 274L729 268L727 266L729 264L734 269L734 271L740 265L741 266L744 263L748 263L754 259L757 260L763 256L763 254L760 251L762 251L762 249L759 240L752 244L750 237L752 233L747 226L748 223L750 225L753 224L756 227L756 223L759 221L758 217L763 215L762 212L760 212L761 213L759 215L757 214L757 212L753 208L754 205L762 200L768 193L770 199L772 187L776 185L775 177L782 162L776 154L773 156L773 158L758 158L755 151L756 146L754 146L751 143L748 146L744 142L748 136L747 133L742 132L734 140L734 142L739 142L740 149L733 156L734 157L729 164L730 165L727 171L729 171L728 174L715 181L707 177L700 193L700 197L698 198L698 201L701 204L704 201L713 204L717 199L722 200L732 210L733 215L731 217L726 216L724 214L716 217L714 216L712 219L708 219L703 225L704 226L699 230L691 230L686 236L682 238L676 237L673 234L668 234L665 242L669 250L661 254L656 260L644 264L633 263L624 266L613 273L610 272L609 270L598 269L594 266L592 267L585 262L564 262L551 260z"/><path class="leaflet-interactive" stroke="#3388ff" stroke-opacity="0" stroke-width="3" stroke-linecap="round" stroke-linejoin="round" fill="#3388ff" fill-opacity="0" fill-rule="evenodd" d="M762 292L766 292L773 284L774 285L780 280L780 276L777 273L778 272L776 272L776 268L778 266L777 267L775 265L775 261L772 256L769 259L769 256L764 252L762 257L759 258L760 259L753 259L753 261L751 260L748 263L744 263L734 271L734 269L729 264L727 266L729 268L729 273L725 278L725 281L728 284L730 284L732 290L738 287L738 285L743 280L748 280L752 284L749 287L750 288L745 292L746 293L743 295L747 297L747 299L746 298L746 300L745 299L743 303L748 300L749 301L748 300L754 295L762 292zM755 297L755 297zM752 298L752 298zM755 297L756 298L755 297zM756 300L755 299L756 300zM758 294L757 295L758 294zM754 297L754 298zM740 284L740 284zM758 295L758 295zM759 300L759 300zM763 292L764 292z"/><path class="leaflet-interactive" stroke="#3388ff" stroke-opacity="0" stroke-width="3" stroke-linecap="round" stroke-linejoin="round" fill="#3388ff" fill-opacity="0" fill-rule="evenodd" d="M811 264L813 257L815 257L819 263L819 261L817 260L821 259L824 256L825 253L817 250L817 246L815 248L813 246L809 248L808 251L806 251L802 245L801 240L798 243L799 244L796 245L793 239L790 240L791 235L789 233L781 233L779 229L775 231L773 229L770 230L766 226L766 222L764 220L760 220L756 223L756 227L753 224L750 225L748 223L747 226L750 228L752 233L750 235L752 243L754 244L759 240L762 249L762 251L760 251L762 253L764 252L767 255L768 254L768 257L770 259L772 256L773 257L775 265L777 267L778 266L776 268L776 272L778 272L777 273L780 276L780 280L783 279L789 270L793 274L800 275L798 268L806 268L809 263L811 264z"/><path class="leaflet-interactive" stroke="#3388ff" stroke-opacity="0" stroke-width="3" stroke-linecap="round" stroke-linejoin="round" fill="#3388ff" fill-opacity="0" fill-rule="evenodd" d="M762 221L766 221L766 225L770 230L773 229L775 231L779 229L781 233L789 233L791 235L790 240L793 239L797 245L799 245L798 242L801 240L802 245L806 251L808 251L808 249L813 246L815 248L817 246L817 250L823 253L824 246L822 237L829 232L838 235L839 234L839 230L846 219L845 218L848 210L847 209L852 204L852 196L855 194L839 198L836 201L835 200L836 201L834 203L823 204L819 199L821 197L818 192L820 189L816 189L809 182L806 183L803 180L797 181L795 179L795 172L793 172L792 165L789 162L790 159L788 159L789 156L787 155L788 154L785 150L786 149L782 141L783 140L779 138L780 137L778 135L772 135L762 129L747 131L746 132L748 136L743 142L746 143L747 146L749 146L752 143L756 147L755 150L758 159L773 158L775 154L782 161L780 169L775 176L776 184L772 186L770 199L768 193L757 204L754 205L753 208L758 215L760 213L761 214L761 212L762 214L763 213L763 215L758 216L759 220L762 221z"/><path class="leaflet-interactive" stroke="#3388ff" stroke-opacity="0" stroke-width="3" stroke-linecap="round" stroke-linejoin="round" fill="#3388ff" fill-opacity="0" fill-rule="evenodd" d="M741 378L745 382L750 379L745 374L743 374L741 378zM749 373L744 370L743 371L746 374L750 374zM748 376L746 374L748 376zM748 375L751 376L748 375zM747 374L746 374zM749 377L749 376zM749 376L749 376z"/><path class="leaflet-interactive" stroke="#3388ff" stroke-opacity="0" stroke-width="3" stroke-linecap="round" stroke-linejoin="round" fill="#3388ff" fill-opacity="0" fill-rule="evenodd" d="M712 345L711 346L708 341L704 343L711 349L714 349L716 353L718 353L717 358L719 358L721 362L725 360L727 362L726 365L722 363L723 366L720 370L722 372L723 371L723 373L725 373L723 376L729 376L728 377L732 377L738 381L745 373L743 372L744 370L749 373L749 370L741 362L737 349L729 343L727 339L724 340L721 346L719 346L717 343L715 345L712 345z"/><path class="leaflet-interactive" stroke="#3388ff" stroke-opacity="0" stroke-width="3" stroke-linecap="round" stroke-linejoin="round" fill="#3388ff" fill-opacity="0" fill-rule="evenodd" d="M721 404L724 405L724 411L727 412L731 409L732 412L736 411L738 414L739 410L743 408L742 405L743 406L747 404L747 396L750 395L748 391L751 389L747 388L742 383L744 381L741 378L738 381L732 377L730 381L727 382L729 384L726 385L724 387L725 388L718 395L718 397L721 400L721 403zM751 388L752 389L752 387L750 386L751 388zM751 386L751 387zM752 391L752 391zM753 381L753 381zM751 385L752 386L751 385zM752 386L752 385zM750 396L750 395zM753 389L753 389zM753 384L753 384zM748 399L749 399zM752 389L752 390zM748 396L748 396zM743 410L743 410zM749 381L750 382L749 381zM749 402L749 402zM751 391L750 390L751 391zM753 388L753 389zM754 382L754 382zM749 402L749 402zM750 386L750 386zM753 388L753 388zM748 388L749 387L748 388zM742 411L742 411zM749 395L750 396L749 395zM750 390L750 391zM749 387L749 387zM749 385L749 385zM751 388L751 388zM752 391L752 390zM743 408L743 408zM756 387L756 387zM752 385L752 385zM752 389L752 389zM756 381L756 381zM742 407L743 406L742 407zM743 407L744 406L743 407zM753 388L753 388zM756 381L756 381zM751 388L752 388zM750 388L750 388zM742 407L742 406zM753 389L753 389zM751 388L751 388z"/><path class="leaflet-interactive" stroke="#3388ff" stroke-opacity="0" stroke-width="3" stroke-linecap="round" stroke-linejoin="round" fill="#3388ff" fill-opacity="0" fill-rule="evenodd" d="M706 350L707 351L703 353L699 349L699 354L697 354L696 357L692 359L695 362L695 364L701 364L701 371L699 371L696 374L700 378L702 378L699 382L703 390L706 389L706 387L709 389L707 391L708 392L711 389L713 389L714 392L721 393L725 388L724 387L729 384L727 382L729 382L731 378L728 377L729 376L723 376L725 374L721 370L723 366L722 363L726 365L727 362L725 360L721 362L719 358L717 358L719 353L715 353L716 351L714 349L710 349L705 344L703 345L704 347L706 347L706 350zM724 374L725 374zM707 391L707 391zM697 365L697 365z"/><path class="leaflet-interactive" stroke="#3388ff" stroke-opacity="0" stroke-width="3" stroke-linecap="round" stroke-linejoin="round" fill="#3388ff" fill-opacity="0" fill-rule="evenodd" d="M726 434L725 431L727 433L726 432L729 431L727 431L727 429L733 429L729 427L731 427L731 423L733 421L731 419L733 419L733 417L734 418L732 420L735 419L734 418L737 415L737 413L732 413L730 409L728 412L725 411L723 403L720 404L720 406L716 408L713 407L710 410L711 412L706 417L707 420L705 424L702 426L700 434L704 434L706 436L705 437L708 436L709 443L712 446L719 440L718 437L722 438L724 436L723 435L726 434zM721 438L720 439L721 438zM729 432L730 431L729 432zM730 428L730 428zM733 423L733 422zM719 439L719 438zM733 418L733 418zM719 438L718 437L719 438zM733 423L733 423zM731 423L730 423zM734 420L734 420zM731 428L731 427zM732 419L732 419zM735 419L735 419zM736 416L736 416zM735 417L735 417zM731 419L732 418L731 419z"/><path class="leaflet-interactive" stroke="#3388ff" stroke-opacity="0" stroke-width="3" stroke-linecap="round" stroke-linejoin="round" fill="#3388ff" fill-opacity="0" fill-rule="evenodd" d="M719 394L718 392L714 392L713 389L711 389L708 392L707 391L709 389L707 387L701 391L697 389L697 391L695 391L692 394L688 394L685 397L687 399L687 404L683 408L682 412L684 412L683 415L686 420L685 422L687 422L685 430L691 431L687 436L689 438L696 435L699 437L700 436L702 427L707 420L706 417L711 413L710 410L713 407L716 408L721 405L721 401L718 397L719 394z"/><path class="leaflet-interactive" stroke="#3388ff" stroke-opacity="0" stroke-width="3" stroke-linecap="round" stroke-linejoin="round" fill="#3388ff" fill-opacity="0" fill-rule="evenodd" d="M704 344L705 341L708 340L711 345L715 345L717 343L720 346L722 343L724 343L723 342L725 340L729 339L729 337L736 330L736 328L736 330L739 329L740 326L741 327L740 324L741 325L749 321L752 322L755 316L745 316L745 314L739 312L735 313L736 314L732 317L732 319L728 319L725 315L728 314L728 312L725 309L722 310L717 307L712 312L708 312L705 315L704 314L704 316L703 315L704 316L701 317L701 319L696 324L696 333L702 329L702 331L700 331L692 339L699 345L704 344zM739 311L740 311zM739 310L739 310zM742 326L741 326zM740 309L740 308zM741 307L741 306zM735 333L735 332zM739 311L738 310zM740 307L740 307zM746 314L746 314zM746 314L746 314zM746 314L746 314zM697 331L697 331z"/><path class="leaflet-interactive" stroke="#3388ff" stroke-opacity="0" stroke-width="3" stroke-linecap="round" stroke-linejoin="round" fill="#3388ff" fill-opacity="0" fill-rule="evenodd" d="M675 366L678 365L681 367L683 365L685 372L690 372L691 374L694 373L696 375L697 372L701 371L701 365L697 365L695 361L692 360L696 358L699 349L703 353L707 351L703 344L697 344L697 342L695 342L694 340L693 341L692 338L702 330L697 331L696 333L697 330L695 328L693 330L684 327L682 334L677 338L670 337L669 340L656 345L663 361L670 366L674 366zM683 366L683 367z"/><path class="leaflet-interactive" stroke="#3388ff" stroke-opacity="0" stroke-width="3" stroke-linecap="round" stroke-linejoin="round" fill="#3388ff" fill-opacity="0" fill-rule="evenodd" d="M662 358L649 358L652 361L654 361L653 364L650 363L649 367L650 372L654 375L655 379L648 383L640 383L642 386L640 390L642 390L645 393L644 394L646 393L647 396L648 393L650 391L651 392L651 390L658 391L658 387L668 389L671 392L675 392L677 390L678 393L682 389L682 395L684 397L687 394L693 394L692 393L698 389L701 391L702 390L702 386L700 384L700 380L702 378L698 377L694 373L691 374L690 371L685 372L683 366L670 366L667 363L666 364L662 358zM646 383L646 383zM662 358L662 358zM675 366L675 366zM676 390L677 390z"/><path class="leaflet-interactive" stroke="#3388ff" stroke-opacity="0" stroke-width="3" stroke-linecap="round" stroke-linejoin="round" fill="#3388ff" fill-opacity="0" fill-rule="evenodd" d="M669 436L671 432L675 432L675 434L677 434L676 431L678 429L682 431L685 428L685 424L687 423L685 423L686 420L684 418L684 412L682 412L682 410L683 407L686 406L685 405L687 403L687 399L684 396L683 397L682 390L678 393L677 390L675 392L671 392L668 389L657 387L657 391L649 391L647 395L647 406L649 410L647 412L646 411L646 413L643 415L648 414L650 416L650 418L648 418L647 421L652 426L652 423L656 425L658 422L664 422L663 425L665 425L661 434L665 432L665 436L669 435zM649 418L649 418z"/><path class="leaflet-interactive" stroke="#3388ff" stroke-opacity="0" stroke-width="3" stroke-linecap="round" stroke-linejoin="round" fill="#3388ff" fill-opacity="0" fill-rule="evenodd" d="M682 458L683 454L689 456L690 453L692 455L695 452L697 454L699 452L705 452L708 449L708 447L711 446L708 436L705 437L706 436L704 434L700 434L700 437L698 437L697 435L689 438L687 436L691 432L690 430L685 431L685 429L679 429L677 431L676 430L678 432L676 434L674 432L670 433L671 434L669 436L669 442L664 447L665 450L662 454L659 455L658 458L656 458L655 461L654 460L652 463L651 462L652 465L650 469L652 475L656 475L658 473L655 470L657 466L669 463L671 461L679 461L682 458zM710 447L710 447zM676 462L675 463L676 462zM673 463L674 463zM687 459L687 459zM657 467L658 468L658 466L657 467zM673 463L673 462zM657 468L655 468L658 468zM683 460L683 460zM683 460L683 460zM678 461L678 461zM684 456L684 456zM687 460L687 460zM687 460L686 460zM708 470L709 471L707 472L709 472L708 470zM677 461L677 461zM656 471L656 471zM658 469L658 469zM658 474L658 474zM701 467L702 468L701 467zM701 468L701 468zM700 453L700 453zM700 453L700 453z"/><path class="leaflet-interactive" stroke="#3388ff" stroke-opacity="0" stroke-width="3" stroke-linecap="round" stroke-linejoin="round" fill="#3388ff" fill-opacity="0" fill-rule="evenodd" d="M649 424L648 427L645 426L644 427L646 427L644 429L643 428L642 431L641 429L639 429L638 432L636 432L630 428L628 432L621 436L614 433L611 437L609 437L616 442L621 441L623 443L622 446L620 446L617 449L620 452L625 451L627 453L625 457L627 458L626 460L637 464L642 462L645 463L645 465L647 465L650 463L651 464L651 462L652 463L655 460L656 461L656 459L659 458L659 456L665 451L665 445L669 443L668 441L670 439L668 435L665 437L664 432L662 434L661 433L665 426L663 426L663 422L658 422L655 425L653 423L652 426L649 424zM614 434L614 434zM646 468L646 468z"/><path class="leaflet-interactive" stroke="#3388ff" stroke-opacity="0" stroke-width="3" stroke-linecap="round" stroke-linejoin="round" fill="#3388ff" fill-opacity="0" fill-rule="evenodd" d="M654 477L647 478L642 483L642 489L644 491L650 493L658 487L658 484L662 480L659 476L654 476zM671 610L671 610zM679 576L680 575zM669 610L669 610zM665 502L666 501L665 502zM715 518L715 517zM671 609L671 609zM667 509L668 509zM666 509L667 509zM684 580L688 580L690 578L689 577L685 580zM685 569L686 570L685 569zM685 570L685 570zM669 508L669 508zM667 507L668 506L667 507zM671 570L671 570zM684 582L684 582zM687 570L687 570zM671 502L672 503L671 502zM691 557L691 557zM700 563L700 562zM690 561L691 560zM683 580L684 579zM649 582L651 580L653 581L649 581zM704 569L704 569zM673 511L674 510L673 511zM674 570L674 570zM689 553L690 553zM673 508L673 508zM705 557L706 557zM672 503L672 503zM665 507L666 507zM697 561L698 561zM691 575L691 575zM689 576L690 575zM695 573L696 574L695 573zM684 577L685 576zM697 565L697 565zM705 567L705 567zM682 569L683 568L682 569zM691 552L692 551L691 552zM690 549L690 548zM693 553L693 553zM666 507L666 507zM685 569L685 570zM653 578L653 577zM707 548L708 549L707 548zM667 506L667 506zM673 507L674 506L673 507zM667 510L668 510zM684 560L684 559zM692 575L692 575zM706 562L706 563zM696 559L696 559zM708 556L708 556zM691 509L691 509zM701 566L701 566zM683 567L683 567zM691 580L691 580zM689 554L690 554zM716 554L716 554zM687 558L687 558zM691 548L691 548zM707 556L707 556zM657 576L658 575L657 576zM665 572L665 572zM695 572L696 572zM679 576L679 576zM686 553L686 553zM712 558L712 557zM687 510L687 510zM658 576L658 576zM697 573L698 572zM666 580L666 580zM666 571L667 571zM657 578L657 578zM672 569L672 569zM705 562L705 562zM669 576L669 576zM689 514L689 514zM693 551L694 551zM686 511L686 511zM702 560L702 559zM712 555L712 554zM692 583L692 583zM676 569L676 569zM667 579L667 579zM671 570L671 570zM673 594L674 594zM690 570L690 569zM692 577L692 576zM677 573L677 573zM682 585L682 585zM707 508L707 508zM712 560L712 559zM677 481L677 481zM689 510L689 510zM684 484L684 484zM674 600L675 600zM666 577L666 577zM671 569L672 569zM676 578L677 578zM674 596L674 596zM673 596L673 595zM696 528L696 528zM682 558L682 558zM684 515L684 515zM677 601L677 601zM674 600L674 600zM672 596L672 596zM671 504L671 504zM671 513L671 513zM674 598L674 598zM673 595L673 595zM679 590L679 590zM703 564L703 564zM693 581L693 580zM666 578L666 578zM685 512L685 512zM693 510L693 511zM707 568L707 568zM674 507L675 507zM663 478L663 478zM699 557L700 557zM711 554L711 555zM675 508L675 508zM700 556L700 556zM673 564L674 564zM690 514L690 514zM712 551L712 552zM715 552L715 552zM687 565L687 565zM691 562L691 563zM674 593L674 593z"/><path class="leaflet-interactive" stroke="#3388ff" stroke-opacity="0" stroke-width="3" stroke-linecap="round" stroke-linejoin="round" fill="#3388ff" fill-opacity="0" fill-rule="evenodd" d="M624 402L625 399L626 402L630 398L631 399L633 395L635 395L636 398L640 396L640 400L642 400L642 402L645 405L648 401L648 397L646 393L644 393L644 391L640 390L642 386L640 384L642 384L643 382L646 383L654 380L655 377L653 374L651 372L647 372L645 369L641 367L641 369L639 369L641 373L637 377L638 376L636 381L632 381L633 382L629 388L627 388L626 385L623 386L619 384L619 386L617 386L619 388L616 394L619 395L619 397L621 397L624 401zM646 382L646 383zM618 387L618 387zM646 383L646 383zM629 388L629 388z"/><path class="leaflet-interactive" stroke="#3388ff" stroke-opacity="0" stroke-width="3" stroke-linecap="round" stroke-linejoin="round" fill="#3388ff" fill-opacity="0" fill-rule="evenodd" d="M582 414L587 424L596 421L596 413L601 408L601 404L602 405L604 403L603 402L607 400L607 404L609 404L607 406L609 408L615 406L616 409L623 409L623 405L619 403L618 404L618 402L621 399L624 402L623 398L619 398L619 396L615 392L619 389L618 386L617 387L620 384L623 386L626 385L626 387L629 388L633 381L637 380L637 376L641 373L639 369L641 369L641 367L637 367L634 365L633 366L633 364L630 365L629 362L622 363L622 361L620 361L618 363L617 360L616 363L610 363L607 360L608 357L606 353L599 352L596 347L591 350L593 354L588 359L587 354L586 359L582 357L583 362L577 364L575 362L574 363L572 359L571 362L564 359L560 349L554 349L552 353L555 356L552 358L553 359L551 361L559 367L563 375L561 377L564 381L566 402L568 405L568 401L570 399L574 403L573 406L576 409L578 407L582 414zM623 386L623 386zM629 387L629 387zM617 386L617 386z"/><path class="leaflet-interactive" stroke="#3388ff" stroke-opacity="0" stroke-width="3" stroke-linecap="round" stroke-linejoin="round" fill="#3388ff" fill-opacity="0" fill-rule="evenodd" d="M647 402L646 405L644 405L643 402L642 403L642 401L640 400L640 396L636 398L636 396L633 395L632 398L630 398L626 402L625 399L624 402L621 399L618 402L618 404L619 403L623 405L623 408L617 408L614 412L611 413L608 411L606 413L604 411L602 415L603 420L610 419L607 428L610 431L612 431L609 435L611 437L615 433L621 437L623 435L622 434L628 432L630 428L632 429L632 431L637 432L639 430L638 429L642 430L642 428L644 429L646 427L644 427L645 426L648 427L649 422L647 422L647 418L649 418L649 414L644 415L646 413L645 412L649 410L647 402zM649 417L649 417zM649 418L650 418z"/><path class="leaflet-interactive" stroke="#3388ff" stroke-opacity="0" stroke-width="3" stroke-linecap="round" stroke-linejoin="round" fill="#3388ff" fill-opacity="0" fill-rule="evenodd" d="M615 409L613 405L612 407L609 408L607 406L609 404L607 404L608 401L604 401L604 403L602 405L601 404L600 409L596 413L597 420L594 423L594 421L588 424L581 414L579 410L580 409L578 407L576 409L573 406L574 403L570 399L568 401L568 405L566 403L566 395L564 395L564 399L562 397L561 400L563 403L561 405L559 403L558 404L559 411L562 410L563 413L563 423L561 423L562 425L554 433L555 434L553 438L555 440L553 442L554 443L558 441L564 441L562 443L564 446L563 447L565 450L569 450L566 458L571 459L575 464L579 464L581 462L583 464L582 465L586 467L587 462L585 457L587 455L590 456L593 453L597 456L600 453L604 455L607 452L608 454L612 452L611 451L614 448L617 449L620 446L622 446L623 443L621 441L616 442L613 438L609 438L611 433L611 431L608 428L610 419L608 418L604 420L602 417L604 411L606 413L608 411L612 413L615 410z"/><path class="leaflet-interactive" stroke="#3388ff" stroke-opacity="0" stroke-width="3" stroke-linecap="round" stroke-linejoin="round" fill="#3388ff" fill-opacity="0" fill-rule="evenodd" d="M490 329L481 326L471 326L463 328L460 333L459 332L457 334L454 332L445 337L436 336L435 333L431 333L431 335L429 335L427 338L415 336L415 338L413 340L412 339L411 344L409 346L405 346L401 350L401 354L406 361L405 366L403 366L402 363L399 364L399 368L402 370L402 376L405 379L408 378L413 383L414 382L418 384L422 388L424 384L429 385L441 396L443 394L446 395L445 396L450 401L453 400L455 404L458 403L460 407L462 405L462 407L466 405L469 408L477 408L479 406L483 406L482 411L484 413L491 404L499 406L501 408L503 406L505 410L509 412L510 417L521 416L527 410L532 409L535 407L535 405L538 404L542 404L549 408L552 406L551 405L553 401L558 405L558 403L562 405L562 397L564 399L564 395L566 395L564 386L565 385L563 378L561 376L564 375L560 371L558 365L551 364L552 367L551 366L550 369L546 369L547 372L543 370L542 373L540 371L537 372L535 370L536 367L533 367L534 366L529 363L521 365L516 362L510 362L505 359L499 359L495 357L489 350L491 348L491 341L489 341L488 338L491 332L487 330L490 329z"/><path class="leaflet-interactive" stroke="#3388ff" stroke-opacity="0" stroke-width="3" stroke-linecap="round" stroke-linejoin="round" fill="#3388ff" fill-opacity="0" fill-rule="evenodd" d="M656 344L655 341L658 334L656 320L660 314L657 308L661 304L661 300L663 297L662 294L658 297L654 295L655 296L653 298L652 297L653 298L646 305L646 310L644 310L642 314L638 314L635 311L631 315L631 321L638 325L639 324L642 327L642 337L635 337L635 341L625 339L626 342L624 344L627 347L625 347L626 349L624 351L626 354L620 354L619 357L621 358L619 361L617 361L621 361L623 363L629 362L630 365L633 364L633 366L634 365L637 368L640 367L650 372L649 365L651 363L655 363L652 360L651 361L651 359L649 358L658 357L659 359L661 357L656 344zM661 355L661 355zM622 362L622 362z"/><path class="leaflet-interactive" stroke="#3388ff" stroke-opacity="0" stroke-width="3" stroke-linecap="round" stroke-linejoin="round" fill="#3388ff" fill-opacity="0" fill-rule="evenodd" d="M625 333L624 338L620 336L621 335L619 335L616 332L616 322L609 316L604 315L602 312L600 312L600 306L604 304L607 299L605 295L600 296L597 299L592 297L589 298L589 301L587 303L580 300L579 296L577 296L571 291L568 291L573 287L575 283L574 280L566 280L566 282L565 281L562 283L562 281L559 283L559 280L556 278L554 274L554 268L550 259L542 261L540 263L542 266L541 269L535 272L532 271L524 278L522 282L516 283L514 293L511 297L512 300L514 298L518 298L518 301L522 301L524 303L527 302L529 306L538 306L542 309L544 307L546 308L546 306L549 303L549 298L558 302L559 299L561 301L563 299L566 300L565 301L572 307L574 308L574 305L577 308L578 307L582 312L590 314L597 330L588 342L588 344L591 347L587 349L580 346L579 347L582 353L587 355L588 354L588 358L591 357L590 356L592 356L593 354L590 350L592 350L595 347L598 349L599 352L606 353L608 357L607 360L610 363L616 363L617 360L620 360L620 354L626 354L625 347L627 347L624 344L626 342L625 339L634 341L636 340L634 338L635 337L641 338L641 332L643 330L642 326L633 322L630 319L626 319L626 323L624 325L625 328L629 330L628 333L626 333zM621 335L622 335zM595 327L596 327zM622 336L622 336zM625 333L625 333z"/><path class="leaflet-interactive" stroke="#3388ff" stroke-opacity="0" stroke-width="3" stroke-linecap="round" stroke-linejoin="round" fill="#3388ff" fill-opacity="0" fill-rule="evenodd" d="M595 327L595 323L589 313L588 314L586 312L582 312L580 308L579 309L574 305L574 307L572 307L564 299L562 299L561 301L559 299L557 302L552 298L548 298L549 303L546 306L546 308L544 307L542 309L538 306L529 307L527 302L524 303L522 301L518 301L518 299L515 298L503 303L498 303L493 306L494 308L497 307L496 313L503 319L498 322L498 324L501 325L501 328L499 330L493 328L491 330L487 330L491 332L488 337L488 339L491 342L491 348L489 350L495 357L499 359L502 358L510 362L519 363L521 365L529 363L536 368L535 370L537 372L540 371L542 373L543 370L547 372L546 369L547 370L550 369L551 366L552 367L551 364L553 364L552 359L554 356L552 352L555 348L560 350L563 357L567 361L570 362L572 360L574 362L573 363L576 362L578 364L583 362L582 357L585 357L586 359L587 355L583 353L579 348L581 346L586 349L591 347L588 344L588 342L592 338L591 337L595 335L594 333L597 330L596 327z"/><path class="leaflet-interactive" stroke="#3388ff" stroke-opacity="0" stroke-width="3" stroke-linecap="round" stroke-linejoin="round" fill="#3388ff" fill-opacity="0" fill-rule="evenodd" d="M631 319L631 315L634 312L631 309L625 307L629 300L627 296L623 297L623 299L622 298L620 302L620 310L618 313L607 316L609 316L616 323L615 324L617 328L617 333L619 333L619 335L621 335L624 338L624 333L628 333L629 330L625 327L625 321L627 319L631 319zM621 335L621 336zM622 336L622 336z"/><path class="leaflet-interactive" stroke="#3388ff" stroke-opacity="0" stroke-width="3" stroke-linecap="round" stroke-linejoin="round" fill="#3388ff" fill-opacity="0" fill-rule="evenodd" d="M544 260L540 255L537 246L535 246L536 243L532 243L520 235L510 235L504 233L503 234L501 232L500 233L498 228L501 223L499 220L501 216L500 212L498 212L494 203L488 199L485 200L481 198L481 196L476 192L477 191L474 190L474 185L472 187L467 186L467 190L462 195L460 194L456 198L458 207L456 211L452 213L443 212L436 209L430 227L430 229L433 231L432 233L427 232L426 230L424 232L417 234L416 233L411 236L415 239L415 245L418 252L418 255L415 257L416 258L413 261L414 266L409 270L397 275L396 277L394 277L394 279L387 279L382 286L379 285L377 287L377 283L373 285L370 284L371 286L369 286L366 289L365 288L362 291L363 294L360 295L361 300L362 299L361 302L364 305L365 303L370 305L372 313L371 314L373 316L371 318L367 318L378 323L380 325L379 330L382 332L383 331L391 336L396 335L396 339L398 341L397 343L403 347L411 345L412 340L415 338L415 336L427 338L432 333L434 333L437 336L442 337L454 332L456 334L459 333L464 328L468 328L471 326L481 326L491 330L493 328L499 330L501 326L498 323L503 319L497 313L497 307L494 308L493 305L511 300L516 283L522 282L526 276L532 271L534 271L535 273L537 270L539 270L542 266L540 263L542 261z"/><path class="leaflet-interactive" stroke="#3388ff" stroke-opacity="0" stroke-width="3" stroke-linecap="round" stroke-linejoin="round" fill="#3388ff" fill-opacity="0" fill-rule="evenodd" d="M737 456L740 461L741 455L745 450L749 438L749 432L743 432L738 438L736 444L734 445L736 455zM770 425L770 425zM761 427L762 426L761 427zM731 446L730 447zM763 425L763 425zM730 445L729 446L730 445zM730 448L730 448zM730 445L730 445zM750 428L750 428zM745 454L746 454zM746 459L746 459zM750 429L751 429zM729 449L729 449zM736 457L737 457z"/><path class="leaflet-interactive" stroke="#3388ff" stroke-opacity="0" stroke-width="3" stroke-linecap="round" stroke-linejoin="round" fill="#3388ff" fill-opacity="0" fill-rule="evenodd" d="M686 455L686 457L684 457L685 458L689 456L686 455zM686 458L687 458zM688 456L688 456zM688 456L688 456zM688 456L688 456zM688 457L688 457zM688 456L688 456zM688 457L688 457zM688 457L688 457z"/><path class="leaflet-interactive" stroke="#3388ff" stroke-opacity="0" stroke-width="3" stroke-linecap="round" stroke-linejoin="round" fill="#3388ff" fill-opacity="0" fill-rule="evenodd" d="M682 459L682 458zM682 458L682 458z"/><path class="leaflet-interactive" stroke="#3388ff" stroke-opacity="0" stroke-width="3" stroke-linecap="round" stroke-linejoin="round" fill="#3388ff" fill-opacity="0" fill-rule="evenodd" d="M754 447L756 437L754 447zM743 470L749 462L743 470zM729 494L734 485L729 494zM726 519L726 510L726 519zM723 551L722 553L725 544L724 547zM698 584L703 577L698 584zM672 613L668 614L676 611L673 612zM639 592L640 593L639 585L639 592zM654 549L656 546L656 542L655 548zM652 517L648 509L651 515z"/></g></svg>